<?xml version="1.0" standalone="no"?>
<!DOCTYPE svg PUBLIC "-//W3C//DTD SVG 20010904//EN"
 "http://www.w3.org/TR/2001/REC-SVG-20010904/DTD/svg10.dtd">
<svg version="1.0" xmlns="http://www.w3.org/2000/svg"
 width="1280.000000pt" height="1265.000000pt" viewBox="0 0 1280.000000 1265.000000"
 preserveAspectRatio="xMidYMid meet">
<metadata>
Created by potrace 1.15, written by Peter Selinger 2001-2017
</metadata>
<g transform="translate(0.000000,1265.000000) scale(0.100000,-0.100000)"
fill="#000000" stroke="none">
<path d="M8577 12631 c-108 -24 -139 -42 -135 -79 4 -38 54 -59 165 -70 78 -8
102 -15 149 -43 62 -38 134 -110 134 -135 0 -70 -182 -164 -315 -164 l-50 0
52 46 c75 65 84 129 22 154 -26 11 -50 10 -152 -8 -75 -13 -189 -23 -295 -27
-245 -8 -419 -32 -572 -80 -53 -17 -218 -57 -495 -120 -110 -25 -234 -56 -275
-69 -41 -13 -113 -31 -160 -41 -128 -25 -318 -73 -380 -96 -30 -11 -82 -26
-115 -34 -75 -16 -172 -50 -298 -104 -136 -58 -140 -60 -247 -96 -52 -18 -97
-31 -99 -29 -12 11 83 124 163 196 50 45 96 89 102 97 22 31 322 293 380 333
119 81 152 130 113 169 -22 22 -59 24 -109 6 -36 -13 -256 -141 -300 -175 -55
-42 -256 -164 -313 -191 -34 -15 -106 -53 -160 -84 -183 -107 -185 -62 -4 89
51 43 97 83 102 89 6 6 47 39 92 74 88 66 120 100 129 137 8 31 -12 64 -39 64
-54 0 -345 -144 -548 -271 -69 -43 -130 -79 -135 -79 -21 -1 -120 -71 -222
-158 -103 -87 -275 -275 -297 -325 -6 -12 -39 -60 -73 -107 -35 -47 -88 -137
-118 -200 -30 -63 -59 -123 -65 -133 -13 -24 -66 -169 -83 -228 -7 -25 -30
-93 -51 -150 -53 -150 -65 -222 -71 -424 -6 -209 4 -270 48 -294 38 -22 75 -2
95 49 12 30 24 42 50 51 41 13 56 35 81 116 23 72 59 138 96 172 l26 25 71
-18 c56 -15 75 -16 96 -7 14 6 27 10 28 9 21 -26 145 -286 145 -303 0 -22 -2
-23 -29 -14 -20 7 -41 7 -68 0 -64 -18 -68 -23 -68 -98 0 -67 2 -71 61 -163
33 -52 73 -117 89 -145 16 -27 34 -54 41 -60 30 -24 58 -207 70 -450 9 -197
-34 -637 -66 -669 -5 -5 -10 -20 -10 -31 0 -12 -6 -41 -14 -66 -8 -24 -24 -82
-36 -129 -31 -115 -198 -451 -297 -600 -24 -35 -43 -69 -43 -76 0 -7 -6 -17
-14 -21 -8 -4 -31 -30 -53 -58 -84 -107 -639 -646 -716 -696 -26 -17 -75 -62
-110 -99 -63 -69 -193 -169 -251 -194 -17 -7 -63 -40 -103 -72 -225 -186 -306
-249 -322 -252 -9 -2 -33 12 -53 30 l-37 33 8 60 c5 41 10 55 15 43 9 -21 56
-24 88 -7 16 9 26 7 48 -10 24 -17 33 -18 64 -10 21 6 40 17 43 26 6 15 -2 67
-24 168 -15 64 -91 200 -149 265 -30 34 -54 64 -54 69 0 20 63 121 85 135 33
22 48 20 74 -8 18 -20 25 -43 32 -113 11 -105 14 -113 33 -113 24 0 42 47 55
140 15 113 3 211 -47 370 -22 69 -47 170 -56 225 -9 55 -19 108 -22 118 -4 13
1 17 21 17 29 0 33 -8 50 -89 12 -63 34 -75 78 -46 33 22 42 5 28 -48 -7 -23
-11 -80 -9 -127 3 -84 3 -85 30 -88 35 -4 45 16 54 104 4 38 15 83 24 101 15
29 17 30 28 12 7 -10 23 -19 36 -19 26 0 22 -13 42 164 7 66 35 116 65 116 28
0 85 -43 103 -78 13 -25 48 -170 66 -272 12 -67 33 -122 51 -133 9 -5 28 -7
42 -3 24 6 27 11 27 49 0 23 -4 80 -10 127 -5 47 -14 136 -20 198 -6 63 -17
129 -24 147 -8 17 -17 50 -21 73 -9 58 -83 177 -190 307 -20 25 -23 38 -18 68
3 20 11 37 18 37 7 0 25 -32 41 -72 31 -75 50 -96 79 -84 16 6 17 16 12 100
-13 196 -45 267 -193 432 -59 66 -124 130 -145 144 -47 31 -76 77 -60 93 8 8
16 8 25 2 61 -45 68 -48 85 -38 9 5 17 19 19 31 2 11 10 26 18 32 11 10 17 5
34 -31 11 -24 20 -56 20 -70 0 -34 32 -63 59 -54 19 6 21 14 21 92 0 105 11
105 63 0 39 -78 63 -102 91 -91 40 15 2 149 -77 269 -75 115 -169 182 -307
219 -231 62 -289 88 -255 116 12 10 20 9 41 -5 15 -9 40 -21 56 -26 27 -7 34
-4 67 31 33 34 44 40 80 40 35 0 48 -6 71 -29 36 -39 97 -63 151 -59 36 2 45
7 47 24 2 17 -14 31 -85 73 -48 29 -110 71 -138 93 -27 22 -62 48 -77 57 l-28
18 56 28 c73 37 92 65 75 111 -7 19 -10 38 -7 42 15 24 -33 47 -207 103 -177
56 -193 59 -287 59 -57 0 -100 4 -100 10 0 5 21 24 48 41 26 18 82 61 125 97
71 57 89 67 180 93 56 17 125 34 152 39 79 13 164 50 206 87 22 20 61 75 89
123 56 101 173 340 201 415 40 105 168 361 219 438 79 120 76 113 61 131 -7 9
-20 16 -27 16 -25 0 -124 -49 -130 -65 -3 -8 -13 -15 -20 -15 -8 0 -56 -39
-106 -87 -83 -80 -190 -213 -295 -368 -22 -33 -66 -89 -97 -123 -31 -35 -68
-81 -82 -102 -32 -48 -43 -50 -255 -50 l-169 0 -11 27 c-13 34 -26 43 -61 43
-29 0 -189 -79 -223 -110 -11 -10 -39 -27 -62 -38 -42 -20 -55 -18 -32 5 6 6
9 23 7 39 -4 35 -37 44 -74 19 -35 -23 -39 -14 -16 37 24 54 73 116 189 239
105 111 129 149 113 179 -13 25 -30 25 -61 2 -13 -10 -37 -26 -54 -34 -16 -8
-43 -22 -60 -31 -16 -8 -77 -38 -135 -65 -58 -27 -127 -68 -153 -91 -27 -23
-74 -59 -105 -80 -86 -59 -115 -93 -241 -283 -13 -21 -26 -36 -29 -34 -12 12
13 90 39 122 16 21 27 44 24 52 -3 7 -5 16 -5 18 0 2 -9 4 -21 4 -34 0 -80
-40 -103 -89 l-21 -46 -3 70 c-2 39 -1 84 3 101 8 44 91 119 173 155 99 45 97
43 97 80 l0 34 -55 -1 c-60 -2 -182 -46 -249 -89 -32 -22 -67 -66 -105 -132
-4 -7 -13 -68 -21 -135 -8 -68 -20 -154 -27 -193 l-13 -70 -5 135 c-4 121 -7
135 -23 138 -11 2 -30 -6 -43 -19 -13 -12 -24 -20 -24 -17 0 20 69 144 110
197 57 73 69 116 50 181 -54 187 -58 212 -43 264 8 27 26 73 40 102 39 83 17
125 -57 109 -36 -8 -80 -41 -80 -61 0 -8 -4 -14 -8 -14 -12 0 -92 -154 -92
-178 0 -11 -5 -24 -10 -27 -6 -3 -10 -21 -10 -38 0 -58 -18 -95 -82 -170 -34
-40 -94 -114 -133 -162 -67 -86 -126 -149 -192 -207 -35 -31 -43 -64 -43 -187
0 -75 3 -89 26 -122 22 -33 26 -50 31 -150 5 -97 10 -122 35 -171 22 -45 28
-71 28 -122 0 -35 -5 -77 -10 -91 l-10 -27 -73 67 c-92 86 -106 95 -140 88
-27 -5 -29 -8 -25 -54 l3 -49 -38 0 c-57 0 -77 -14 -77 -56 0 -19 5 -44 10
-55 9 -16 7 -21 -14 -31 -58 -26 -42 -60 59 -124 59 -38 64 -47 52 -93 -8 -31
-8 -46 3 -68 8 -15 16 -31 18 -35 2 -5 -19 -8 -47 -8 -49 0 -51 -1 -51 -28 0
-17 9 -37 21 -48 12 -10 32 -36 45 -56 l24 -38 -29 -82 c-43 -126 -64 -155
-114 -163 -64 -11 -94 -30 -107 -70 -17 -50 -4 -89 42 -134 43 -40 68 -107 87
-228 8 -58 29 -88 68 -98 19 -4 23 -10 17 -23 -17 -37 -8 -80 24 -116 46 -53
43 -91 -13 -190 -25 -43 -45 -90 -45 -105 0 -24 -21 -73 -71 -161 -26 -47 -25
-90 2 -97 18 -5 19 -11 14 -44 -22 -132 4 -329 43 -329 42 0 51 20 62 152 17
188 27 222 96 317 32 45 72 101 88 124 16 23 25 33 22 22 -27 -76 -23 -136 10
-149 17 -6 64 27 64 46 0 13 64 97 74 98 14 0 0 -201 -18 -252 -30 -84 -171
-316 -193 -317 -22 -2 -64 -63 -61 -90 5 -41 44 -39 109 5 30 20 65 42 80 49
32 17 112 132 175 254 49 93 64 105 45 34 -18 -64 -14 -93 12 -93 27 0 89 55
111 99 16 30 32 125 55 334 20 180 36 229 101 315 52 70 153 182 163 182 8 0
43 -259 37 -275 -2 -5 -6 -41 -10 -78 -5 -49 -13 -74 -29 -91 -16 -17 -21 -34
-20 -68 2 -36 -5 -57 -29 -97 -35 -57 -120 -163 -209 -262 -32 -36 -85 -100
-118 -142 -32 -42 -62 -77 -66 -77 -3 0 -44 -45 -90 -100 -46 -56 -98 -109
-116 -120 -17 -10 -39 -34 -49 -52 -9 -18 -24 -40 -33 -49 -9 -9 -52 -58 -96
-110 -44 -51 -113 -128 -153 -169 -41 -41 -101 -113 -135 -160 -34 -47 -70
-92 -80 -100 -13 -11 -20 -38 -27 -104 -12 -117 -46 -225 -86 -273 -31 -37
-31 -37 -58 -20 -20 13 -26 26 -26 52 0 58 -15 85 -50 85 -38 0 -53 -23 -91
-141 -22 -70 -29 -110 -29 -173 0 -93 21 -193 52 -252 21 -40 21 -42 4 -60
-15 -14 -17 -29 -13 -74 5 -62 48 -157 75 -167 9 -4 35 -21 58 -40 66 -53 84
-147 84 -432 0 -285 27 -398 125 -526 48 -62 85 -137 130 -262 58 -159 109
-257 157 -298 55 -47 114 -82 180 -106 86 -31 101 -60 172 -331 14 -54 32
-109 41 -121 16 -25 91 -230 130 -357 12 -41 30 -92 39 -114 9 -21 16 -62 16
-90 0 -28 7 -64 15 -80 8 -15 15 -30 15 -32 0 -2 -22 -4 -49 -4 -59 0 -108 16
-141 45 -39 35 -106 65 -146 65 -30 0 -46 -8 -84 -44 -26 -24 -70 -56 -97 -70
-60 -30 -103 -77 -142 -154 -38 -77 -55 -153 -47 -216 17 -131 20 -140 48
-150 23 -8 33 -6 56 11 44 33 109 63 135 63 35 0 45 -17 53 -93 7 -73 26 -99
72 -103 30 -2 113 -46 132 -69 7 -8 19 -15 27 -15 7 0 22 -20 33 -46 12 -27
49 -74 93 -118 62 -60 88 -78 153 -104 44 -18 111 -39 149 -49 39 -9 75 -20
81 -25 6 -5 14 -26 18 -47 12 -76 69 -81 102 -9 l19 43 100 -2 c115 -3 119 -6
129 -86 8 -59 28 -87 63 -87 39 0 61 17 73 57 7 21 23 56 35 78 l23 40 113 0
113 0 11 -60 c14 -78 19 -85 64 -85 46 0 54 8 75 81 19 68 37 84 101 93 27 3
54 11 59 16 6 6 59 10 118 10 61 0 133 6 166 14 31 8 104 22 161 31 57 8 135
24 175 35 61 16 183 42 376 80 25 5 81 16 125 26 44 9 100 20 125 25 202 39
348 73 361 85 8 8 31 14 51 14 19 0 57 7 84 15 71 22 93 19 104 -10 17 -45 39
-42 89 13 25 28 63 58 85 67 78 31 98 18 107 -70 4 -38 13 -73 22 -82 24 -24
55 -7 68 37 7 21 25 55 41 74 26 32 35 36 78 36 27 0 52 -6 59 -13 6 -8 15
-44 20 -82 9 -60 21 -84 43 -85 10 0 58 60 58 74 0 30 45 54 110 58 50 3 88
14 160 47 52 24 127 57 165 73 39 16 75 34 80 39 6 6 15 67 20 136 l10 126 32
11 c62 21 67 34 38 109 -13 36 -40 129 -60 206 -31 125 -35 154 -35 273 l0
134 56 123 c55 123 55 123 61 245 5 100 3 127 -10 153 -39 75 -82 84 -122 26
-32 -48 -32 -24 0 61 19 51 25 85 25 148 l0 81 -43 -5 -43 -5 13 61 c21 100
18 123 -18 141 -44 23 -69 15 -107 -34 -19 -25 -59 -60 -89 -79 -47 -30 -63
-35 -102 -31 -25 2 -82 2 -125 1 l-79 -2 6 78 c5 75 7 78 46 113 38 34 198
107 283 130 18 4 67 21 108 36 74 28 78 28 300 28 l225 -1 130 -38 c143 -41
204 -64 375 -139 123 -54 175 -84 228 -132 19 -16 51 -41 72 -55 117 -78 157
-111 280 -233 156 -154 265 -273 311 -337 18 -25 47 -62 66 -83 48 -54 131
-231 165 -351 41 -144 56 -251 69 -502 10 -195 9 -225 -5 -267 -9 -26 -16 -53
-16 -60 0 -7 -24 -73 -54 -147 -48 -121 -60 -141 -112 -195 -143 -146 -412
-326 -509 -340 -35 -6 -56 1 -155 49 -63 30 -140 62 -171 70 -151 39 -381 23
-426 -29 -23 -27 -28 -52 -16 -94 5 -21 10 -22 47 -17 23 4 50 13 61 20 11 7
37 16 58 20 34 6 38 5 47 -19 14 -36 13 -88 -2 -107 -7 -8 -34 -21 -60 -28
-43 -11 -48 -16 -48 -40 0 -33 13 -45 60 -55 45 -9 60 -22 60 -51 0 -32 -54
-91 -93 -103 -18 -5 -93 -32 -167 -60 -74 -29 -178 -63 -231 -76 -86 -22 -103
-24 -153 -13 -49 9 -62 17 -94 55 -93 112 -107 125 -177 158 l-72 35 -255 0
c-218 0 -257 -2 -262 -15 -13 -35 15 -54 104 -69 14 -2 0 -3 -30 -1 -30 2
-103 11 -161 21 -101 17 -108 17 -133 1 -14 -10 -26 -25 -26 -34 0 -14 -10
-15 -80 -9 -44 3 -130 19 -192 35 -62 16 -158 34 -213 41 -55 6 -136 16 -180
23 -44 6 -136 10 -205 9 -135 -3 -220 -23 -292 -68 -100 -63 -350 -259 -406
-318 -121 -129 -137 -236 -34 -236 30 0 42 7 67 37 36 44 81 89 152 150 45 39
71 50 200 91 l148 46 169 -1 c175 -2 210 -10 160 -36 -39 -20 -71 -56 -79 -89
-5 -21 -1 -33 19 -53 33 -32 70 -28 132 17 38 27 48 29 100 25 98 -8 244 -48
244 -67 0 -16 -196 -35 -415 -40 l-240 -5 -3 -26 c-4 -33 16 -49 92 -74 45
-15 64 -28 74 -47 18 -39 68 -77 147 -114 119 -54 213 -65 384 -44 109 14 384
81 486 118 132 48 123 46 96 22 -13 -11 -54 -37 -90 -57 -75 -41 -91 -57 -91
-90 0 -17 10 -27 38 -40 33 -15 35 -17 14 -20 -13 -3 -37 0 -54 6 -41 15 -111
14 -126 -1 -14 -14 -16 -62 -2 -87 10 -21 47 -36 104 -46 34 -6 36 -8 20 -19
-11 -8 -15 -19 -10 -31 5 -15 16 -17 84 -13 43 3 90 13 107 22 17 9 39 16 50
16 11 0 42 11 70 24 27 14 89 43 137 65 81 37 245 139 296 185 24 21 37 15 44
-19 3 -19 11 -20 133 -20 93 1 147 6 190 19 72 21 257 113 339 168 32 22 75
42 95 45 20 3 50 11 67 19 43 19 132 37 149 30 8 -3 15 -17 15 -31 0 -69 56
-86 126 -38 21 14 54 37 73 50 19 13 46 23 61 23 35 0 118 28 152 51 14 11 31
19 37 19 6 0 16 11 21 25 5 14 22 30 36 35 14 6 38 23 53 38 14 16 47 43 74
61 26 17 47 36 47 42 0 5 8 13 17 16 9 4 49 39 89 78 40 39 98 89 129 111 32
21 60 46 63 54 3 8 63 71 133 140 159 156 206 215 267 332 57 110 197 409 244
523 l33 80 -2 265 c-5 533 -43 758 -173 1037 -39 84 -99 185 -209 352 -61 93
-70 114 -51 126 5 3 10 15 10 25 0 10 8 26 17 35 14 14 15 24 6 56 -8 31 -7
43 5 60 13 19 13 25 -2 55 -20 43 -20 68 -1 84 12 10 20 8 41 -9 32 -25 69
-27 78 -5 3 8 -2 45 -11 81 -36 144 -120 210 -286 224 -83 7 -99 11 -145 42
-45 31 -62 36 -136 42 -84 7 -85 8 -71 29 12 18 12 26 -5 64 -19 41 -19 42 0
42 25 0 50 26 50 52 0 29 -44 83 -93 116 -40 27 -42 27 -236 29 l-196 2 -37
40 c-44 47 -49 71 -14 71 32 0 48 22 40 55 -5 21 -20 33 -65 54 -32 14 -58 29
-59 33 0 4 18 11 40 14 45 7 48 17 23 68 -27 57 -91 69 -211 41 -34 -8 -89
-26 -122 -40 -76 -32 -98 -31 -143 3 -39 29 -48 52 -19 52 21 0 42 19 42 38 0
7 -15 27 -32 44 l-33 30 40 -7 c66 -13 108 -11 113 4 2 7 -25 41 -62 77 -80
76 -91 79 -274 71 -127 -5 -139 -7 -196 -37 -34 -18 -83 -48 -111 -68 -55 -39
-127 -53 -177 -33 -40 15 -38 54 3 71 43 18 37 51 -13 63 -40 10 -48 21 -22
31 10 4 42 -8 79 -29 34 -19 65 -32 69 -28 3 3 6 20 6 38 0 24 -11 42 -47 77
-64 63 -109 80 -208 80 -117 1 -189 -21 -368 -110 -5 -2 -7 11 -5 29 3 30 8
36 46 48 84 26 74 84 -23 131 -64 31 -123 104 -111 136 7 18 46 18 105 -2 26
-8 68 -14 92 -12 37 2 45 7 47 25 3 18 -13 33 -85 79 -48 32 -119 69 -158 82
-61 21 -82 24 -171 20 -84 -4 -111 -9 -156 -31 -65 -32 -201 -140 -241 -191
-26 -34 -31 -36 -85 -36 -106 0 -217 -76 -318 -217 -25 -35 -48 -63 -52 -64
-4 0 -35 -1 -69 -3 l-62 -2 6 27 c7 37 -32 64 -71 49 -38 -14 -42 -13 -22 9 9
10 18 31 19 47 2 29 1 29 -50 28 -31 -1 -70 -11 -99 -25 -56 -28 -131 -98
-157 -148 -13 -26 -21 -31 -27 -22 -5 9 -20 12 -39 9 -17 -2 -31 -1 -31 4 0 4
4 8 8 8 5 0 14 12 21 27 11 25 10 29 -10 46 -19 15 -32 17 -68 12 -53 -8 -69
-17 -170 -88 -65 -46 -103 -88 -147 -162 -16 -27 -44 -12 -44 24 0 20 8 34 25
45 31 20 32 49 2 70 l-22 15 28 22 c21 16 27 29 27 58 l0 38 -59 13 c-46 10
-57 15 -48 24 21 20 310 192 347 206 19 7 80 36 135 63 158 78 320 126 505
147 116 13 190 27 250 45 25 8 72 19 105 26 33 6 121 27 195 46 96 25 174 37
270 44 74 6 163 16 196 24 92 22 258 38 317 30 165 -20 383 -13 410 14 8 8 8
38 -1 103 -6 50 -9 95 -6 100 9 15 60 -63 79 -120 23 -71 66 -94 166 -91 61 2
72 0 85 -19 10 -14 29 -23 62 -27 62 -7 111 -24 144 -48 22 -17 31 -18 59 -8
17 6 69 11 113 11 56 0 88 5 103 15 12 8 50 19 84 24 46 6 67 14 80 30 15 19
34 24 111 31 51 5 136 21 188 35 92 25 254 56 295 57 11 0 46 -3 77 -7 89 -12
92 -7 84 145 -3 69 -2 141 2 160 8 34 8 32 20 -34 6 -39 19 -78 30 -90 10 -11
26 -41 36 -66 9 -25 29 -67 44 -95 21 -39 33 -51 55 -53 18 -2 31 -11 37 -26
6 -18 28 -27 111 -51 57 -15 120 -39 140 -52 37 -24 63 -23 73 3 5 12 19 5 66
-32 45 -35 68 -63 97 -118 l37 -71 0 -170 1 -170 44 0 c40 0 47 4 64 33 32 55
56 190 67 383 l11 183 34 45 35 44 0 113 c0 64 4 115 10 119 6 3 10 -4 10 -17
0 -48 20 -98 40 -98 23 0 57 41 68 84 5 17 24 47 43 66 19 20 64 74 102 120
83 105 108 130 174 178 28 20 56 47 62 60 6 12 19 22 28 22 27 0 133 55 173
88 l34 30 -13 107 c-7 58 -10 109 -7 112 3 4 6 1 6 -4 0 -27 64 -176 83 -194
23 -21 67 -25 84 -8 8 8 13 5 18 -10 8 -27 42 -35 119 -28 61 6 328 70 350 85
6 4 31 12 56 17 44 10 45 12 44 47 l-1 37 19 -24 c11 -14 28 -25 39 -25 25 0
151 35 177 49 11 6 71 14 134 17 l113 7 32 -36 c21 -24 42 -69 63 -134 17 -54
37 -101 43 -105 7 -4 24 -8 38 -8 53 0 54 7 54 344 0 281 2 314 18 344 21 39
25 99 7 131 -10 20 -9 26 9 42 12 11 31 39 43 62 20 37 23 58 25 187 1 151 8
184 73 364 12 33 24 91 27 128 3 38 9 71 13 73 4 2 21 -1 38 -7 42 -16 58 -1
65 63 8 67 19 80 60 68 50 -14 58 -12 101 34 23 23 64 57 93 75 28 18 54 39
57 47 3 9 19 15 37 15 20 0 54 15 95 42 54 35 65 48 70 78 4 19 10 40 14 45 4
6 14 29 21 53 10 34 16 41 30 37 33 -11 66 25 115 125 30 60 57 103 71 109 12
5 29 25 38 45 9 19 25 42 36 52 10 9 19 30 19 46 0 24 4 28 28 29 16 0 52 19
87 45 77 57 135 88 145 77 4 -4 19 -44 34 -88 32 -92 65 -138 98 -133 21 3 27
14 63 116 3 9 25 -12 57 -51 52 -66 113 -197 199 -427 22 -58 44 -114 49 -125
5 -11 16 -44 25 -74 37 -116 114 -125 131 -15 10 67 1 136 -45 354 -41 191
-43 198 -125 365 -46 94 -96 199 -112 235 -15 36 -48 89 -73 119 -25 30 -66
80 -91 112 -52 65 -177 215 -229 275 -58 65 -84 97 -115 139 -46 62 -60 76
-236 235 -163 147 -465 454 -539 547 -21 26 -72 80 -115 118 -43 39 -108 97
-145 131 -37 33 -79 69 -93 78 -26 17 -105 37 -223 57 -81 14 -535 199 -600
245 -17 12 -111 63 -210 114 -99 51 -191 103 -205 115 -107 94 -440 237 -626
269 -151 27 -334 29 -437 7z m-5009 -9072 c141 -5 270 -12 286 -17 40 -11 48
-45 36 -157 -5 -49 -12 -133 -15 -185 -8 -115 -31 -176 -70 -186 -52 -13 -149
3 -223 35 -84 37 -107 36 -188 -10 -28 -16 -56 -29 -62 -29 -22 0 -99 -60
-162 -127 -82 -85 -109 -123 -125 -176 -28 -92 -42 -107 -104 -107 -13 0 -30
-8 -37 -17 -11 -15 -13 3 -14 119 0 162 11 210 73 328 120 224 136 334 55 376
-15 8 -28 18 -28 23 0 13 31 36 114 85 44 26 92 58 109 72 l29 24 35 -21 c31
-20 54 -22 291 -30z m-1704 -121 c32 -14 64 -94 78 -191 9 -65 57 -207 93
-278 9 -17 37 -57 62 -88 89 -109 127 -234 121 -404 -3 -95 -6 -111 -23 -123
-12 -9 -30 -12 -48 -8 -23 5 -29 2 -34 -16 -7 -25 -135 -90 -180 -90 -15 -1
-53 -10 -83 -21 -89 -32 -90 -33 -90 -16 0 8 13 20 28 26 66 28 75 101 47 411
-8 91 -15 241 -15 334 0 94 -5 232 -11 307 -7 75 -9 144 -6 153 7 19 27 20 61
4z m2540 -313 c14 -18 44 -46 67 -62 22 -15 53 -38 67 -51 l27 -22 -80 4
c-107 7 -122 9 -135 22 -13 13 -40 176 -40 234 0 35 1 34 34 -28 19 -35 46
-78 60 -97z m776 26 l0 -130 -57 -12 c-66 -14 -347 -18 -360 -5 -4 4 3 16 17
25 13 9 63 44 110 77 47 34 117 77 155 97 39 19 81 44 95 56 14 11 28 20 33
21 4 0 7 -58 7 -129z m660 -2761 c-12 -22 -58 -45 -69 -34 -8 7 50 54 67 54
10 0 10 -5 2 -20z"/>
</g>
</svg>
